<?xml version="1.0" encoding="iso-8859-1"?>
<!-- Uploaded to: SVG Repo, www.svgrepo.com, Generator: SVG Repo Mixer Tools -->
<svg fill="#000000" height="800px" width="800px" version="1.1" id="Layer_1" xmlns="http://www.w3.org/2000/svg" xmlns:xlink="http://www.w3.org/1999/xlink" 
	 viewBox="0 0 512 512" xml:space="preserve">
<g>
	<g>
		<path d="M449.453,121.353c-8.076-6.537-19.462-6.651-27.681-0.277c-13.473,10.445-35.857,13.994-59.887,9.485
			c-28.736-5.39-53.919-20.959-65.724-40.633c-15.575-25.957-37.406-43.029-64.891-50.74c-21.507-6.033-42.953-5.524-60.622-4.817V0
			H54.285v104.727h23.273v302.545H54.285V512h232.727v-70.97l167.875-291.594l0.591-1.121
			C459.994,138.966,457.516,127.879,449.453,121.353z M170.651,407.273h-33.745V104.727h33.745V407.273z M240.469,336.154
			l-34.909,39.462V69.704c12.105,1.315,23.992,4.451,34.909,11.202V336.154z M310.287,257.23l-34.909,39.462V120.664
			c9.279,11.032,21.196,20.586,34.909,28.147V257.23z M345.196,217.768v-55.178c3.371,0.868,6.79,1.635,10.256,2.285
			c11.891,2.228,23.511,2.961,34.521,2.275L345.196,217.768z"/>
	</g>
</g>
</svg>